<?xml version="1.0" encoding="utf-8"?>
<!-- Uploaded to: SVG Repo, www.svgrepo.com, Generator: SVG Repo Mixer Tools -->
<svg fill="#000000" width="800px" height="800px" viewBox="0 0 32 32" version="1.1" xmlns="http://www.w3.org/2000/svg">
<title>bucket</title>
<path d="M28 12.75h-24c-0.69 0-1.25 0.56-1.25 1.25s0.56 1.25 1.25 1.25v0h1.417l3.267 15.016c0.127 0.567 0.625 0.984 1.222 0.984h12.188c0.596-0 1.094-0.418 1.219-0.976l0.002-0.008 3.268-15.016h1.417c0.69 0 1.25-0.56 1.25-1.25s-0.56-1.25-1.25-1.25v0zM21.086 28.75h-10.173l-2.937-13.5h16.049zM6.778 11.252h0.002c0.69-0 1.249-0.559 1.25-1.248v-0c-0.002-0.055-0.003-0.12-0.003-0.185 0-2.317 1.283-4.335 3.178-5.38l0.032-0.016c1.347-0.734 2.951-1.166 4.655-1.166 1.712 0 3.322 0.435 4.725 1.201l-0.052-0.026c1.913 1.059 3.187 3.066 3.187 5.37 0 0.070-0.001 0.139-0.003 0.208l0-0.010c0 0 0 0.001 0 0.001 0 0.69 0.558 1.249 1.248 1.251h0.002c0 0 0 0 0 0 0.69 0 1.249-0.559 1.25-1.248v-0c0.002-0.063 0.003-0.137 0.003-0.211 0-3.221-1.77-6.028-4.391-7.501l-0.043-0.022c-1.711-0.953-3.753-1.514-5.927-1.514-2.163 0-4.197 0.556-5.965 1.532l0.064-0.032c-2.68 1.498-4.462 4.318-4.462 7.554 0 0.067 0.001 0.133 0.002 0.2l-0-0.010c0 0 0 0.001 0 0.001 0 0.69 0.558 1.249 1.248 1.251h0z"></path>
</svg>