<svg xmlns="http://www.w3.org/2000/svg" shape-rendering="geometricPrecision" text-rendering="geometricPrecision" image-rendering="optimizeQuality" fill-rule="evenodd" clip-rule="evenodd" viewBox="0 0 421 511.605"><path fill="#6DBF39" d="M95.705.014h199.094L421 136.548v317.555c0 31.54-25.961 57.502-57.502 57.502H95.705c-31.55 0-57.502-25.873-57.502-57.502V57.515C38.203 25.886 64.076.014 95.705.014z"/><path fill="#589B2E" d="M341.028 133.408h-.019L421 188.771v-52.066h-54.357c-9.458-.15-17.998-1.274-25.615-3.297z"/><path fill="#DFFACD" d="M294.8 0L421 136.533v.172h-54.357c-45.068-.718-69.33-23.397-71.843-61.384V0z"/><path fill="#4F8C29" fill-rule="nonzero" d="M0 431.901V253.404l.028-1.261c.668-16.446 14.333-29.706 30.936-29.706h7.238v50.589h342.975c12.862 0 23.373 10.51 23.373 23.371v135.504c0 12.83-10.543 23.373-23.373 23.373H23.373C10.541 455.274 0 444.75 0 431.901z"/><path fill="#4F8C29" fill-rule="nonzero" d="M143.448 240.364a8.496 8.496 0 01-8.496-8.497 8.496 8.496 0 018.496-8.497h163.176a8.496 8.496 0 018.496 8.497 8.496 8.496 0 01-8.496 8.497H143.448zm0-59.176a8.496 8.496 0 010-16.993h172.304a8.496 8.496 0 110 16.993H143.448z"/><path fill="#fff" fill-rule="nonzero" d="M11.329 276.171v154.728c0 7.793 6.38 14.178 14.179 14.178H380.175c7.799 0 14.178-6.379 14.178-14.178V297.405c0-7.798-6.388-14.178-14.178-14.178H37.892c-12.618-.096-19.586-1.638-26.563-7.056z"/><path fill="#1A1A1A" fill-rule="nonzero" d="M111.186 401.572H83.54l21.226-81.894h40.489l21.226 81.894h-27.648l-3.012-12.971h-21.62l-3.015 12.971zm13.104-56.735l-5.373 22.93h12.055l-5.241-22.93h-1.441zm92.373 36.95h-17.034v19.785h-26.206v-81.894h41.275c18.781 0 28.171 10.09 28.171 30.269 0 11.094-2.445 19.306-7.337 24.634-1.835 2.008-4.367 3.712-7.6 5.11-3.232 1.396-6.987 2.096-11.269 2.096zm-17.034-41.144v20.179h6.029c3.144 0 5.437-.327 6.878-.982 1.443-.656 2.162-2.162 2.162-4.522v-9.171c0-2.359-.719-3.866-2.162-4.521-1.441-.655-3.734-.983-6.878-.983h-6.029zm96.308 41.144h-17.034v19.785h-26.206v-81.894h41.275c18.781 0 28.17 10.09 28.17 30.269 0 11.094-2.444 19.306-7.336 24.634-1.835 2.008-4.367 3.712-7.6 5.11-3.233 1.396-6.987 2.096-11.269 2.096zm-17.034-41.144v20.179h6.028c3.145 0 5.438-.327 6.879-.982 1.442-.656 2.162-2.162 2.162-4.522v-9.171c0-2.359-.72-3.866-2.162-4.521-1.441-.655-3.734-.983-6.879-.983h-6.028z"/></svg>