<svg xmlns="http://www.w3.org/2000/svg"  viewBox="0 0 30 30" width="30px" height="30px"><path fill="#8bb7f0" d="M2.5 2.5H27.5V27.5H2.5z"/><path fill="#4e7ab5" d="M27,3v24H3V3H27 M28,2H2v26h26V2L28,2z"/><path fill="#fff" d="M6 12.5L10 12.5 10 20.45 10 24 6 24zM8 11L8 11c-1.2 0-2-.85-2-1.9s.8-1.85 2-1.85 1.95.8 2 1.85C10 10.15 9.25 11 8 11zM23.353 24h-3.949c0 0 0-5.973 0-6.417s-.049-1.974-1.728-1.974c-1.481 0-1.728 1.431-1.728 1.974s0 6.417 0 6.417H12V12.647h3.949v1.53c0 0 .79-1.53 3.11-1.53 2.369 0 4.294 1.629 4.294 4.936V24z"/></svg>